<?xml version="1.0" encoding="utf-8"?>
<!-- Generator: Adobe Illustrator 25.4.1, SVG Export Plug-In . SVG Version: 6.00 Build 0)  -->
<svg version="1.1" id="Capa_1" xmlns="http://www.w3.org/2000/svg" xmlns:xlink="http://www.w3.org/1999/xlink" x="0px" y="0px"
	 viewBox="0 0 70.7 119" style="enable-background:new 0 0 70.7 119;" xml:space="preserve">
<style type="text/css">
	.st0{fill:#FFFFFF;}
	.st1{fill:#FFA300;}
</style>
<g>
	<g>
		<path class="st0" d="M52.8,59.6c0.7,1,1.1,2,1.1,3c0,1-0.3,2.2-1,3.8c-0.6,1.8-1,3-1.1,3.5c-2,11.6-2.9,19.2-2.9,22.8
			c0,1.8,0.1,3.5,0.2,5.3c0,0.3,0.8,1.3,2.3,2.8c1.5,1.5,2.3,2.9,2.3,3.9c0,1-0.6,1.8-1.7,2.4c-0.9,0.6-1.9,0.8-2.9,0.7
			c-7.6-0.3-16.4-5.5-26.5-15.6c-5.9-5.9-8.8-11.2-8.8-16c0-1.3,0.2-2.6,0.5-3.8c1.9-6.7,8.1-11,18.7-12.9c0.3-0.1,0.5-0.2,0.5-0.5
			c0-0.3-0.3-0.7-0.8-1c-0.5-0.4-0.9-0.6-1.2-0.6c-2.5-1.5-5.3-3.5-8.2-6.1L16,45.1c-0.4-0.9-0.2-2.1,0.5-3.7
			c1.6-2.3,4.3-4.1,8.1-5.4c5.4-2,8.4-3.1,9.2-3.5c2.7-1.5,6.2-2.3,10.5-2.6c-0.4,0,3.4,0,11.4,0c0.9,0,1.9,0.6,3.1,1.8
			c1.2,1.2,1.8,2.5,1.8,4c0,0.9-0.2,1.7-0.7,2.4c-0.4,0.7-1.3,1.1-2.5,1.2s-2,0.3-2.3,0.6c-1.5,1-2.3,3-2.2,6.1
			c0.2,4.4,0.3,6.9,0.1,7.5C52,56.7,52,58.8,52.8,59.6z M39.2,40.4c-0.4,0-0.9,0.2-1.3,0.5c-0.2,0.1-1.7,0.6-4.4,1.6
			c-1.7,0.6-2.6,1.3-2.6,2c0,0.2,0,0.4,0.1,0.6c0.6,1.9,1.9,3.5,4,4.9c2.1,1.4,4.4,2,7,1.8c-0.2-0.7-0.1-1.8,0.2-3.2
			c0.3-1.4,0.4-2.4,0.2-3C41.8,42.1,40.7,40.4,39.2,40.4z M40.2,76.8c0.5-2,0.7-3.4,0.7-4.4s-0.2-1.8-0.6-2.4
			c-0.9-1-2.2-1.5-3.8-1.5c-2.3,0-4.6,0.8-7.1,2.4c-2.4,1.6-3.8,3.4-4.2,5.3c-0.2,0.6-0.2,1.3-0.2,2c0,2.9,1.4,5.8,4.2,8.5
			c0.4,0.4,3,2.7,7.9,6.7c0.6-1.5,1.1-3.5,1.5-5.9c0.2-2,0.5-4.1,0.7-6.1C39.5,80.7,39.8,79.1,40.2,76.8z"/>
	</g>
	<g>
		<path class="st1" d="M45.7,10.1c-0.7,0.1-1.5,1.3-2.3,3.6s-1.2,4.5-1.2,6.5c0,2.4,0.7,3.5,2.2,3.5c1.8,0,4.3-2.6,7.5-7.7
			c0.2-0.5,0.4-1,0.4-1.5c0-1.2-0.8-2.3-2.3-3.3C48.4,10.3,47,9.9,45.7,10.1z"/>
	</g>
	<g>
		<path class="st1" d="M29.2,10c0,1.7,0.6,3.9,1.7,6.6c1.4,3.1,2.8,4.6,4.2,4.6c1.2,0,2.2-1.4,2.9-4.3c0.1-0.3,0.4-2.2,0.9-5.7
			c0.3-2.2-1.4-3.3-5.3-3.3C30.7,7.9,29.2,8.6,29.2,10z"/>
	</g>
	<g>
		<path class="st1" d="M16.5,20.8c-0.4,1,0.6,2.2,2.9,3.7c2.3,1.5,4.2,2.1,5.7,1.6c1.2-0.3,1.8-1.4,1.8-3.2c0-2.4-0.7-4.9-2.1-7.5
			c-0.3-0.6-0.8-0.9-1.5-0.9c-1.1,0-2.4,0.7-3.9,2.2C18,18.4,17,19.7,16.5,20.8z"/>
	</g>
</g>
</svg>
